<svg width="36" height="36" viewBox="0 0 36 36" fill="none" xmlns="http://www.w3.org/2000/svg">
<g clip-path="url(#clip0_5_2105)">
<path d="M10.6941 2.68596C11.3902 3.31174 11.4465 4.37346 10.8207 5.06956L5.7582 10.6946C5.44883 11.0391 5.01289 11.243 4.54883 11.25C4.08477 11.2571 3.6418 11.0813 3.31133 10.7578L0.491797 7.94534C-0.162109 7.2844 -0.162109 6.21565 0.491797 5.55471C1.1457 4.89377 2.22148 4.89377 2.87539 5.55471L4.4293 7.10862L8.30352 2.80549C8.9293 2.1094 9.99102 2.05315 10.6871 2.67893L10.6941 2.68596ZM10.6941 13.936C11.3902 14.5617 11.4465 15.6235 10.8207 16.3196L5.7582 21.9446C5.44883 22.2891 5.01289 22.493 4.54883 22.5C4.08477 22.5071 3.6418 22.3313 3.31133 22.0078L0.491797 19.1953C-0.169141 18.5344 -0.169141 17.4656 0.491797 16.8117C1.15273 16.1578 2.22148 16.1508 2.87539 16.8117L4.4293 18.3657L8.30352 14.0625C8.9293 13.3664 9.99102 13.3102 10.6871 13.936H10.6941ZM15.7496 6.75002C15.7496 5.50549 16.7551 4.50002 17.9996 4.50002H33.7496C34.9941 4.50002 35.9996 5.50549 35.9996 6.75002C35.9996 7.99456 34.9941 9.00002 33.7496 9.00002H17.9996C16.7551 9.00002 15.7496 7.99456 15.7496 6.75002ZM15.7496 18C15.7496 16.7555 16.7551 15.75 17.9996 15.75H33.7496C34.9941 15.75 35.9996 16.7555 35.9996 18C35.9996 19.2446 34.9941 20.25 33.7496 20.25H17.9996C16.7551 20.25 15.7496 19.2446 15.7496 18ZM11.2496 29.25C11.2496 28.0055 12.2551 27 13.4996 27H33.7496C34.9941 27 35.9996 28.0055 35.9996 29.25C35.9996 30.4946 34.9941 31.5 33.7496 31.5H13.4996C12.2551 31.5 11.2496 30.4946 11.2496 29.25ZM3.37461 25.875C4.26971 25.875 5.12816 26.2306 5.76109 26.8635C6.39403 27.4965 6.74961 28.3549 6.74961 29.25C6.74961 30.1451 6.39403 31.0036 5.76109 31.6365C5.12816 32.2694 4.26971 32.625 3.37461 32.625C2.4795 32.625 1.62106 32.2694 0.988124 31.6365C0.355189 31.0036 -0.000390645 30.1451 -0.000390645 29.25C-0.000390645 28.3549 0.355189 27.4965 0.988124 26.8635C1.62106 26.2306 2.4795 25.875 3.37461 25.875Z" fill="#22C55E"/>
</g>
<defs>
<clipPath id="clip0_5_2105">
<path d="M0 0H36V36H0V0Z" fill="white"/>
</clipPath>
</defs>
</svg>
