<svg width="14" height="18" viewBox="0 0 14 18" fill="none" xmlns="http://www.w3.org/2000/svg">
<g clip-path="url(#clip0_5_2353)">
<path d="M6.74966 1.6875C6.74966 1.23995 6.92745 0.810725 7.24392 0.494257C7.56038 0.17779 7.98961 0 8.43716 0C8.88471 0 9.31394 0.17779 9.6304 0.494257C9.94687 0.810725 10.1247 1.23995 10.1247 1.6875C10.1247 2.13505 9.94687 2.56428 9.6304 2.88074C9.31394 3.19721 8.88471 3.375 8.43716 3.375C7.98961 3.375 7.56038 3.19721 7.24392 2.88074C6.92745 2.56428 6.74966 2.13505 6.74966 1.6875ZM8.55318 8.11055L7.88169 10.793L9.62896 12.5402C9.94536 12.8566 10.1247 13.2855 10.1247 13.732V16.875C10.1247 17.4973 9.62193 18 8.99966 18C8.37739 18 7.87466 17.4973 7.87466 16.875V13.9676L5.27661 11.3695C4.72114 10.8141 4.49614 10.0125 4.68247 9.24961L5.39966 6.29648C5.69146 5.09766 6.90083 4.36641 8.09614 4.66523C8.76411 4.83398 9.34771 5.2418 9.72739 5.81484L10.7258 7.3125H11.8122V6.46875C11.8122 6.00117 12.1883 5.625 12.6559 5.625C13.1235 5.625 13.4997 6.00117 13.4997 6.46875V8.43047C13.4997 8.43398 13.4997 8.4375 13.4997 8.4375V8.44453V17.1562C13.4997 17.6238 13.1235 18 12.6559 18C12.1883 18 11.8122 17.6238 11.8122 17.1562V9.5625H10.427C9.8645 9.5625 9.33716 9.28125 9.02427 8.81016L8.55669 8.10703L8.55318 8.11055ZM2.85083 16.5902L4.12349 11.7422C4.22896 11.8898 4.34849 12.0305 4.47857 12.1605L5.95161 13.6336L5.02349 17.1598C4.86528 17.7609 4.25005 18.1195 3.64888 17.9613C3.04771 17.8031 2.68911 17.1879 2.84732 16.5867L2.85083 16.5902ZM4.802 4.42617L3.5645 9.36914C3.45903 9.79453 3.04068 10.0687 2.60825 9.99844L0.924269 9.71719C0.432082 9.63633 0.119191 9.14414 0.249269 8.6625L1.12114 5.44922C1.45513 4.22578 2.56607 3.375 3.83521 3.375H3.98286C4.5313 3.375 4.9356 3.8918 4.802 4.42266V4.42617Z" fill="white"/>
</g>
<defs>
<clipPath id="clip0_5_2353">
<path d="M0 0H13.5V18H0V0Z" fill="white"/>
</clipPath>
</defs>
</svg>
