<svg width="18" height="18" viewBox="0 0 18 18" fill="none" xmlns="http://www.w3.org/2000/svg">
<g clip-path="url(#clip0_5_2339)">
<path d="M0 1.125C0 0.502734 0.502734 0 1.125 0H16.875C17.4973 0 18 0.502734 18 1.125C18 1.74727 17.4973 2.25 16.875 2.25V15.75C17.4973 15.75 18 16.2527 18 16.875C18 17.4973 17.4973 18 16.875 18H10.6875V16.3125C10.6875 15.3809 9.93164 14.625 9 14.625C8.06836 14.625 7.3125 15.3809 7.3125 16.3125V18H1.125C0.502734 18 0 17.4973 0 16.875C0 16.2527 0.502734 15.75 1.125 15.75V2.25C0.502734 2.25 0 1.74727 0 1.125ZM3.375 3.9375V5.0625C3.375 5.37188 3.62812 5.625 3.9375 5.625H5.0625C5.37188 5.625 5.625 5.37188 5.625 5.0625V3.9375C5.625 3.62812 5.37188 3.375 5.0625 3.375H3.9375C3.62812 3.375 3.375 3.62812 3.375 3.9375ZM8.4375 3.375C8.12812 3.375 7.875 3.62812 7.875 3.9375V5.0625C7.875 5.37188 8.12812 5.625 8.4375 5.625H9.5625C9.87188 5.625 10.125 5.37188 10.125 5.0625V3.9375C10.125 3.62812 9.87188 3.375 9.5625 3.375H8.4375ZM12.375 3.9375V5.0625C12.375 5.37188 12.6281 5.625 12.9375 5.625H14.0625C14.3719 5.625 14.625 5.37188 14.625 5.0625V3.9375C14.625 3.62812 14.3719 3.375 14.0625 3.375H12.9375C12.6281 3.375 12.375 3.62812 12.375 3.9375ZM3.9375 6.75C3.62812 6.75 3.375 7.00312 3.375 7.3125V8.4375C3.375 8.74688 3.62812 9 3.9375 9H5.0625C5.37188 9 5.625 8.74688 5.625 8.4375V7.3125C5.625 7.00312 5.37188 6.75 5.0625 6.75H3.9375ZM7.875 7.3125V8.4375C7.875 8.74688 8.12812 9 8.4375 9H9.5625C9.87188 9 10.125 8.74688 10.125 8.4375V7.3125C10.125 7.00312 9.87188 6.75 9.5625 6.75H8.4375C8.12812 6.75 7.875 7.00312 7.875 7.3125ZM12.9375 6.75C12.6281 6.75 12.375 7.00312 12.375 7.3125V8.4375C12.375 8.74688 12.6281 9 12.9375 9H14.0625C14.3719 9 14.625 8.74688 14.625 8.4375V7.3125C14.625 7.00312 14.3719 6.75 14.0625 6.75H12.9375ZM11.5312 13.5C11.9988 13.5 12.3855 13.1168 12.2695 12.6633C11.8969 11.2043 10.575 10.125 9 10.125C7.425 10.125 6.09961 11.2043 5.73047 12.6633C5.61445 13.1133 6.00469 13.5 6.46875 13.5H11.5312Z" fill="white"/>
</g>
<defs>
<clipPath id="clip0_5_2339">
<path d="M0 0H18V18H0V0Z" fill="white"/>
</clipPath>
</defs>
</svg>
