<svg width="18" height="18" viewBox="0 0 18 18" fill="none" xmlns="http://www.w3.org/2000/svg">
<g clip-path="url(#clip0_5_2221)">
<path d="M5.50575 13.5318L4.41942 12.4454C4.12059 12.1466 4.01512 11.7142 4.14872 11.3134C4.25418 11.0005 4.39481 10.5927 4.56356 10.1251H0.844028C0.541685 10.1251 0.260434 9.9634 0.109263 9.69973C-0.0419093 9.43606 -0.0383936 9.11262 0.116294 8.85246L1.962 5.74113C2.41903 4.97121 3.2452 4.50012 4.13817 4.50012H7.03153C7.1159 4.35949 7.20028 4.22941 7.28465 4.10285C10.164 -0.144023 14.453 -0.284648 17.0124 0.186446C17.4202 0.260274 17.7366 0.580196 17.814 0.988008C18.285 3.5509 18.1409 7.83645 13.8975 10.7157C13.7745 10.8001 13.6409 10.8845 13.5003 10.9689V13.8622C13.5003 14.7552 13.0292 15.5849 12.2593 16.0384L9.14794 17.8841C8.88778 18.0388 8.56434 18.0423 8.30067 17.8911C8.037 17.74 7.87528 17.4622 7.87528 17.1564V13.3876C7.37958 13.5599 6.94715 13.7005 6.6202 13.806C6.22645 13.9325 5.79754 13.8236 5.50223 13.5318H5.50575ZM13.5003 5.90637C13.8732 5.90637 14.2309 5.75821 14.4946 5.49449C14.7584 5.23076 14.9065 4.87308 14.9065 4.50012C14.9065 4.12716 14.7584 3.76947 14.4946 3.50575C14.2309 3.24203 13.8732 3.09387 13.5003 3.09387C13.1273 3.09387 12.7696 3.24203 12.5059 3.50575C12.2422 3.76947 12.094 4.12716 12.094 4.50012C12.094 4.87308 12.2422 5.23076 12.5059 5.49449C12.7696 5.75821 13.1273 5.90637 13.5003 5.90637Z" fill="white"/>
</g>
<defs>
<clipPath id="clip0_5_2221">
<path d="M0 0H18V18H0V0Z" fill="white"/>
</clipPath>
</defs>
</svg>
