<svg width="16" height="18" viewBox="0 0 16 18" fill="none" xmlns="http://www.w3.org/2000/svg">
<g clip-path="url(#clip0_5_2330)">
<path d="M6.75 2.25V4.5C6.75 5.12227 7.25273 5.625 7.875 5.625H10.125C10.7473 5.625 11.25 5.12227 11.25 4.5V2.25C11.25 1.62773 10.7473 1.125 10.125 1.125H7.875C7.25273 1.125 6.75 1.62773 6.75 2.25ZM2.90742 7.27734C2.36953 7.58672 2.18672 8.27578 2.49609 8.81367L3.62109 10.7613C3.93047 11.2992 4.61953 11.482 5.15742 11.1727L7.10508 10.0477C7.64297 9.73828 7.82578 9.04922 7.51641 8.51133L6.39141 6.56367C6.08203 6.02578 5.39297 5.84297 4.85508 6.15234L2.90742 7.27734ZM10.125 6.75C9.50273 6.75 9 7.25273 9 7.875V10.125C9 10.7473 9.50273 11.25 10.125 11.25H12.375C12.9973 11.25 13.5 10.7473 13.5 10.125V7.875C13.5 7.25273 12.9973 6.75 12.375 6.75H10.125ZM12.375 12.375C11.7527 12.375 11.25 12.8777 11.25 13.5V15.75C11.25 16.3723 11.7527 16.875 12.375 16.875H14.625C15.2473 16.875 15.75 16.3723 15.75 15.75V13.5C15.75 12.8777 15.2473 12.375 14.625 12.375H12.375ZM5.625 13.5V15.75C5.625 16.3723 6.12773 16.875 6.75 16.875H9C9.62227 16.875 10.125 16.3723 10.125 15.75V13.5C10.125 12.8777 9.62227 12.375 9 12.375H6.75C6.12773 12.375 5.625 12.8777 5.625 13.5ZM1.125 12.375C0.502734 12.375 0 12.8777 0 13.5V15.75C0 16.3723 0.502734 16.875 1.125 16.875H3.375C3.99727 16.875 4.5 16.3723 4.5 15.75V13.5C4.5 12.8777 3.99727 12.375 3.375 12.375H1.125Z" fill="white"/>
</g>
<defs>
<clipPath id="clip0_5_2330">
<path d="M0 0H15.75V18H0V0Z" fill="white"/>
</clipPath>
</defs>
</svg>
