<svg width="20" height="20" viewBox="0 0 20 20" fill="none" xmlns="http://www.w3.org/2000/svg">
<g clip-path="url(#clip0_5_2395)">
<path d="M9.37934 0.164062C9.76215 -0.0546875 10.2348 -0.0546875 10.6215 0.164062L17.3325 3.99609L17.5004 4.0625V4.09766L19.3715 5.16797C19.8637 5.44922 20.1059 6.02734 19.9614 6.57422C19.8168 7.12109 19.3207 7.50391 18.7543 7.50391H1.25043C0.684025 7.50391 0.187932 7.12109 0.0434003 6.57422C-0.101131 6.02734 0.141057 5.44922 0.633244 5.16797L2.50043 4.09766V4.0625L2.67231 4L9.37934 0.164062ZM2.50043 8.75H5.00043V16.25H6.56293V8.75H9.06293V16.25H10.9379V8.75H13.4379V16.25H15.0004V8.75H17.5004V16.418C17.5239 16.4297 17.5473 16.4453 17.5707 16.4609L19.4457 17.7109C19.9028 18.0156 20.1098 18.5859 19.9497 19.1133C19.7895 19.6406 19.3012 20 18.7504 20H1.25043C0.69965 20 0.215275 19.6406 0.0551191 19.1133C-0.105037 18.5859 0.0980878 18.0156 0.559025 17.7109L2.43403 16.4609C2.45746 16.4453 2.4809 16.4336 2.50434 16.418V8.75H2.50043Z" fill="#3C82F6"/>
</g>
<defs>
<clipPath id="clip0_5_2395">
<path d="M0 0H20V20H0V0Z" fill="white"/>
</clipPath>
</defs>
</svg>
