<svg width="21" height="18" viewBox="0 0 21 18" fill="none" xmlns="http://www.w3.org/2000/svg">
<g clip-path="url(#clip0_5_2323)">
<path d="M14.3438 4.21875C14.3438 6.13828 11.7738 9.55898 10.6453 10.9688C10.3746 11.3063 9.87188 11.3063 9.60469 10.9688C8.47617 9.55898 5.90625 6.13828 5.90625 4.21875C5.90625 1.88789 7.79414 0 10.125 0C12.4559 0 14.3438 1.88789 14.3438 4.21875ZM14.625 7.04531C14.748 6.80273 14.8605 6.56016 14.9625 6.32109C14.9801 6.27891 14.9977 6.2332 15.0152 6.19102L19.0934 4.55977C19.6488 4.33828 20.25 4.74609 20.25 5.34375V14.8641C20.25 15.2086 20.0391 15.518 19.7191 15.648L14.625 17.6836V7.04531ZM4.8375 4.86211C4.92188 5.35781 5.09062 5.85703 5.2875 6.32109C5.38945 6.56016 5.50195 6.80273 5.625 7.04531V15.8836L1.15664 17.673C0.601172 17.8945 0 17.4867 0 16.8891V7.36875C0 7.02422 0.210938 6.71484 0.530859 6.58477L4.84102 4.86211H4.8375ZM11.5242 11.6719C12.0129 11.0602 12.7793 10.0652 13.5 8.96484V17.7293L6.75 15.7992V8.96484C7.4707 10.0652 8.23711 11.0602 8.72578 11.6719C9.44648 12.5719 10.8035 12.5719 11.5242 11.6719ZM10.125 5.34375C10.498 5.34375 10.8556 5.19559 11.1194 4.93187C11.3831 4.66815 11.5312 4.31046 11.5312 3.9375C11.5312 3.56454 11.3831 3.20685 11.1194 2.94313C10.8556 2.67941 10.498 2.53125 10.125 2.53125C9.75204 2.53125 9.39435 2.67941 9.13063 2.94313C8.86691 3.20685 8.71875 3.56454 8.71875 3.9375C8.71875 4.31046 8.86691 4.66815 9.13063 4.93187C9.39435 5.19559 9.75204 5.34375 10.125 5.34375Z" fill="white"/>
</g>
<defs>
<clipPath id="clip0_5_2323">
<path d="M0 0H20.25V18H0V0Z" fill="white"/>
</clipPath>
</defs>
</svg>
