<svg width="25" height="20" viewBox="0 0 25 20" fill="none" xmlns="http://www.w3.org/2000/svg">
<path d="M25 20H0V0H25V20Z" stroke="#E5E7EB"/>
<path d="M12.1875 1.25C11.668 1.25 11.25 1.66797 11.25 2.1875C11.25 2.70703 11.668 3.125 12.1875 3.125H13.1914L14.543 5.625H8.70703L7.63672 4.14062C7.46094 3.89453 7.17578 3.75 6.875 3.75H4.6875C4.16797 3.75 3.75 4.16797 3.75 4.6875C3.75 5.20703 4.16797 5.625 4.6875 5.625H6.39453L7.25781 6.82422L6.21875 8.89844C5.82812 8.80078 5.41797 8.75 5 8.75C2.23828 8.75 0 10.9883 0 13.75C0 16.5117 2.23828 18.75 5 18.75C7.55078 18.75 9.65234 16.8398 9.96094 14.375H11.875C12.207 14.375 12.5117 14.1992 12.6836 13.9141L15.9961 8.30859L16.8438 9.875C15.7188 10.793 15 12.1875 15 13.75C15 16.5117 17.2383 18.75 20 18.75C22.7617 18.75 25 16.5117 25 13.75C25 10.9883 22.7617 8.75 20 8.75C19.4727 8.75 18.9648 8.83203 18.4883 8.98438L14.6641 1.90625C14.4453 1.5 14.0234 1.25 13.5625 1.25H12.1875ZM17.9141 11.8633L19.1758 14.1953C19.4219 14.6523 19.9922 14.8203 20.4453 14.5742C20.8984 14.3281 21.0703 13.7578 20.8242 13.3047L19.5625 10.9727C19.7031 10.9492 19.8516 10.9375 20 10.9375C21.5547 10.9375 22.8125 12.1953 22.8125 13.75C22.8125 15.3047 21.5547 16.5625 20 16.5625C18.4453 16.5625 17.1875 15.3047 17.1875 13.75C17.1875 13.0234 17.4609 12.3633 17.9141 11.8633ZM5.20312 14.375H7.74219C7.45703 15.6289 6.33594 16.5625 5 16.5625C3.44531 16.5625 2.1875 15.3047 2.1875 13.75C2.1875 12.1953 3.44531 10.9375 5 10.9375C5.06641 10.9375 5.13281 10.9414 5.19922 10.9453L4.25391 12.8398C3.90234 13.5469 4.41406 14.3789 5.20312 14.3789V14.375ZM6.51953 12.5L8.5 8.54297L11.3477 12.4961L11.3437 12.5H6.51563H6.51953ZM10.0586 7.5H14.293L12.3828 10.7344L10.0547 7.5H10.0586Z" fill="#F97316"/>
</svg>
