<svg width="30" height="30" viewBox="0 0 30 30" fill="none" xmlns="http://www.w3.org/2000/svg">
<g clip-path="url(#clip0_1_39)">
<path d="M3.38086 11.3086L3.93164 12.2695C4.41797 13.1191 5.21484 13.7461 6.1582 14.0156L9.55078 14.9824C10.5586 15.2695 11.25 16.1895 11.25 17.2383V19.5762C11.25 20.2207 11.6133 20.8066 12.1875 21.0938C12.7617 21.3809 13.125 21.9668 13.125 22.6113V24.8965C13.125 25.8105 13.998 26.4727 14.877 26.2207C15.8203 25.9512 16.5527 25.1953 16.793 24.2402L16.957 23.584C17.2031 22.5938 17.8477 21.7441 18.7324 21.2402L19.207 20.9707C20.0859 20.4727 20.625 19.5352 20.625 18.5273V18.041C20.625 17.2969 20.3262 16.582 19.7988 16.0547L19.5703 15.8262C19.043 15.2988 18.3281 15 17.584 15H15.0586C14.4082 15 13.7637 14.8301 13.1953 14.5078L11.1738 13.3535C10.9219 13.207 10.7285 12.9727 10.6348 12.6973C10.4473 12.1348 10.6992 11.5254 11.2324 11.2617L11.5781 11.0859C11.9648 10.8926 12.416 10.8574 12.8262 10.998L14.1855 11.4492C14.666 11.6074 15.1934 11.4258 15.4688 11.0098C15.7441 10.5996 15.7148 10.0547 15.3984 9.67383L14.6016 8.71875C14.0156 8.01563 14.0215 6.99023 14.6191 6.29883L15.5391 5.22656C16.0547 4.62305 16.1367 3.76172 15.7441 3.07617L15.6035 2.83008C15.3984 2.81836 15.1992 2.8125 14.9941 2.8125C9.55664 2.8125 4.94531 6.38086 3.38086 11.3086ZM27.1875 15C27.1875 12.8438 26.625 10.8164 25.6406 9.05273L24.1406 9.65625C23.2207 10.0254 22.7461 11.0508 23.0566 11.9883L24.0469 14.959C24.252 15.5684 24.75 16.0313 25.3711 16.1836L27.0762 16.6113C27.1465 16.084 27.1816 15.5449 27.1816 15H27.1875ZM0 15C0 11.0218 1.58035 7.20644 4.3934 4.3934C7.20644 1.58035 11.0218 0 15 0C18.9782 0 22.7936 1.58035 25.6066 4.3934C28.4196 7.20644 30 11.0218 30 15C30 18.9782 28.4196 22.7936 25.6066 25.6066C22.7936 28.4196 18.9782 30 15 30C11.0218 30 7.20644 28.4196 4.3934 25.6066C1.58035 22.7936 0 18.9782 0 15Z" fill="#2563EB"/>
</g>
<defs>
<clipPath id="clip0_1_39">
<path d="M0 0H30V30H0V0Z" fill="white"/>
</clipPath>
</defs>
</svg>
